<svg width="20" height="20" viewBox="0 0 20 20" fill="none" xmlns="http://www.w3.org/2000/svg">
<g id="instagram">
<path id="Shape" fill-rule="evenodd" clip-rule="evenodd" d="M6.25 0H13.75C17.2013 0 20 2.79875 20 6.25V13.75C20 17.2012 17.2013 20 13.75 20H6.25C2.79875 20 0 17.2012 0 13.75V6.25C0 2.79875 2.79875 0 6.25 0ZM13.75 18.1247C16.1625 18.1247 18.125 16.1622 18.125 13.7497V6.24971C18.125 3.83721 16.1625 1.87471 13.75 1.87471H6.25009C3.83761 1.87471 1.87512 3.83721 1.87512 6.24971V13.7497C1.87512 16.1622 3.83761 18.1247 6.25009 18.1247H13.75Z" fill="white"/>
<path id="Shape_2" fill-rule="evenodd" clip-rule="evenodd" d="M4.95239 10.0003C4.95239 7.21271 7.21246 4.95264 10 4.95264C12.7875 4.95264 15.0476 7.21271 15.0476 10.0003C15.0476 12.7878 12.7875 15.0479 10 15.0479C7.21246 15.0479 4.95239 12.7878 4.95239 10.0003ZM6.84521 10.0008C6.84521 11.7397 8.26108 13.1555 10 13.1555C11.7389 13.1555 13.1548 11.7397 13.1548 10.0008C13.1548 8.2606 11.7389 6.84601 10 6.84601C8.26108 6.84601 6.84521 8.2606 6.84521 10.0008Z" fill="white"/>
<path id="Oval" d="M15.3333 5.33357C15.7015 5.33357 16 5.03509 16 4.66691C16 4.29872 15.7015 4.00024 15.3333 4.00024C14.9651 4.00024 14.6666 4.29872 14.6666 4.66691C14.6666 5.03509 14.9651 5.33357 15.3333 5.33357Z" fill="white"/>
</g>
</svg>
